<svg id="Layer_1" data-name="Layer 1" xmlns="http://www.w3.org/2000/svg" viewBox="0 0 221.34 221.34"><defs><style>.cls-1{fill:#53c5da;}.cls-2{fill:#fff;stroke:#fff;stroke-linecap:round;stroke-linejoin:round;stroke-width:4.02px;}.cls-3{fill:#e46e25;}.cls-4{fill:#6c4ea0;}.cls-5{fill:#fcba1e;}</style></defs><title>dcaf-letter-blocks</title><rect class="cls-1" width="104.05" height="104.05" rx="0.55" ry="0.55"/><rect class="cls-2" x="34.74" y="26.45" width="1.43" height="50.11"/><path class="cls-2" d="M51.77,26.45H43.32V76.56h8.45c7.8,0,17.54-4.51,17.54-18.61V45.06C69.31,31,59.58,26.45,51.77,26.45Zm-7,10h7c3.36,0,7.52,2.08,7.52,8.59V57.92c0,6.51-4.15,8.59-7.52,8.59h-7V36.45ZM67.89,57.92c0,13-8.95,17.18-16.11,17.18h-7V67.94h7c4,0,8.95-2.43,8.95-10V45.06c0-7.59-4.94-10-8.95-10h-7V27.84h7C58.94,27.84,67.89,32,67.89,45v12.9Z"/><rect class="cls-3" x="117.29" width="104.05" height="104.05" rx="0.55" ry="0.55"/><path class="cls-2" d="M161.8,44c0-6.51,4.15-8.59,7.52-8.59a7.28,7.28,0,0,1,7.52,7q0,0.24,0,.49h1.43c0-3.65-2.36-8.95-8.95-8.95-4,0-8.95,2.43-8.95,10V59c0,7.59,4.94,10,8.95,10,6.59,0,8.95-5.3,8.95-8.95h-1.43a7.28,7.28,0,0,1-7,7.52h-0.49c-3.36,0-7.52-2.08-7.52-8.59V44Z"/><path class="cls-2" d="M153.18,44c0-13,9-17.15,16.14-17.15,11.88,0,16.11,9.59,16.11,16.11h1.43c0-7.09-4.58-17.54-17.54-17.54-7.8,0-17.54,4.51-17.54,18.61V59c0,14.1,9.73,18.61,17.54,18.61,13,0,17.54-10.45,17.54-17.54h-1.43c0,6.51-4.22,16.11-16.11,16.11-7.16,0-16.11-4.15-16.11-17.18V44Z"/><rect class="cls-4" y="117.29" width="104.05" height="104.05" rx="0.55" ry="0.55"/><polygon class="cls-2" points="29.55 193.85 31.05 193.85 48.45 143.75 47.01 143.75 29.55 193.85"/><path class="cls-2" d="M73,193.84h1.5L57,143.73H55.6l-17,50.11h1.5l3.44-10.24h17L64,193.84h1.5L52.74,156.4l3.58-10.56ZM60,182.17H44L46.43,175H57.6Zm-2.93-8.59H46.94l5.08-15Z"/><rect class="cls-5" x="117.29" y="117.29" width="104.05" height="104.05" rx="0.55" ry="0.55"/><rect class="cls-2" x="154.72" y="144.56" width="1.43" height="50.11"/><polygon class="cls-2" points="185.72 144.56 163.31 144.56 163.31 194.66 164.74 194.66 164.74 177.32 179.8 177.32 179.8 175.88 164.74 175.88 164.74 168.73 179.8 168.73 179.8 167.3 164.74 167.3 164.74 154.58 185.72 154.58 185.72 153.15 164.74 153.15 164.74 145.99 185.72 145.99 185.72 144.56"/></svg>